<?xml version="1.0" standalone="no"?>
<!DOCTYPE svg PUBLIC "-//W3C//DTD SVG 20010904//EN"
 "http://www.w3.org/TR/2001/REC-SVG-20010904/DTD/svg10.dtd">
<svg version="1.0" xmlns="http://www.w3.org/2000/svg"
 width="960.000000pt" height="375.000000pt" viewBox="0 0 960.000000 375.000000"
 preserveAspectRatio="xMidYMid meet">

<g transform="translate(0.000000,375.000000) scale(0.100000,-0.100000)"
fill="#000000" stroke="none">
<path d="M7101 3643 l1 -108 33 70 c19 39 38 87 43 108 l10 37 -44 0 -44 0 1
-107z"/>
<path d="M7239 3689 c-23 -59 -82 -140 -120 -167 -17 -12 -19 -27 -19 -183 l0
-171 34 22 34 21 8 -91 c3 -50 10 -88 13 -83 4 4 13 31 20 58 7 28 35 83 62
124 28 40 51 83 52 93 1 11 11 30 22 42 16 17 20 32 17 58 -2 20 1 44 6 55 14
25 -3 56 -17 34 -7 -10 -11 -1 -16 32 -4 27 -14 51 -24 57 -13 7 -14 13 -4 27
6 10 17 17 24 15 10 -2 9 0 -1 13 -12 14 -15 14 -31 -1 -17 -15 -19 -15 -19
-2 0 9 11 23 25 32 14 9 23 21 19 27 -4 6 -11 6 -20 -2 -22 -18 -29 -2 -10 26
16 24 16 25 -7 25 -20 0 -28 -10 -48 -61z m76 -128 c-3 -6 -11 -8 -17 -5 -6 4
-5 9 3 15 16 10 23 4 14 -10z"/>
<path d="M7540 3721 c0 -53 -11 -90 -26 -84 -22 8 -17 -31 6 -52 11 -10 20
-13 20 -7 0 7 16 3 40 -9 23 -12 42 -20 44 -18 2 2 8 13 15 24 10 18 11 17 5
-7 -5 -21 -2 -28 9 -28 13 0 14 6 7 31 -5 18 -7 36 -4 41 3 5 -6 6 -20 2 -37
-9 -32 2 14 32 38 26 56 60 25 48 -19 -8 -19 6 1 34 l15 22 -75 0 -76 0 0 -29z"/>
<path d="M7720 3741 c0 -5 7 -25 16 -46 8 -20 13 -47 11 -59 -3 -17 -7 -13
-22 22 l-18 43 -14 -32 c-15 -37 -18 -129 -3 -129 20 0 8 -23 -54 -104 -68
-89 -96 -135 -96 -161 0 -27 31 -85 51 -96 16 -8 14 -3 -6 27 -47 69 -38 92
76 213 55 58 120 127 144 152 42 45 62 81 83 147 l11 32 -90 0 c-49 0 -89 -4
-89 -9z"/>
<path d="M7915 3739 c-4 -5 -4 -18 0 -28 3 -11 1 -22 -5 -26 -5 -3 -10 -12
-10 -18 0 -7 6 -4 14 5 11 15 17 16 39 5 20 -9 25 -17 20 -34 -3 -15 0 -25 11
-29 9 -3 14 -10 11 -14 -6 -9 49 -30 79 -30 12 0 36 9 54 20 18 11 35 20 37
20 3 0 5 -15 5 -34 0 -18 7 -47 15 -62 8 -16 15 -23 15 -16 0 19 28 14 34 -6
9 -28 63 -75 76 -67 9 6 9 10 -1 16 -11 6 -11 13 -3 26 14 24 6 56 -12 49 -8
-3 -14 1 -14 9 0 24 23 66 34 62 6 -3 19 0 29 5 16 8 16 11 2 24 -15 16 -20
34 -9 34 4 0 13 -8 20 -17 11 -15 13 -15 14 -3 0 8 11 39 25 68 l24 52 -249 0
c-149 -1 -252 -5 -255 -11z m16 -22 c-10 -9 -11 -8 -5 6 3 10 9 15 12 12 3 -3
0 -11 -7 -18z m379 -22 c-14 -17 -40 -20 -40 -6 0 6 10 17 22 26 26 17 37 3
18 -20z m51 -2 c5 -14 7 -28 4 -31 -8 -8 -34 30 -35 51 0 24 19 12 31 -20z
m-341 -13 c-16 -31 -23 -18 -8 15 7 15 14 23 16 17 2 -6 -2 -21 -8 -32z m300
-33 c0 -8 -11 -24 -25 -37 -22 -21 -25 -22 -25 -5 0 19 27 55 42 55 4 0 8 -6
8 -13z"/>
<path d="M8696 3713 c9 -20 19 -63 22 -95 l7 -59 50 25 49 25 44 -22 44 -22
19 24 c20 25 22 50 10 121 -5 26 -9 34 -10 20 0 -14 -10 -40 -21 -57 -35 -58
-100 -41 -140 35 -18 35 -7 36 35 2 21 -16 45 -30 54 -30 24 0 48 21 56 48 6
22 6 22 -114 22 l-120 0 15 -37z"/>
<path d="M8980 3738 c0 -15 18 -44 22 -38 2 3 12 15 22 28 l19 22 -31 0 c-19
0 -32 -5 -32 -12z"/>
<path d="M9111 3733 c7 -10 26 -33 43 -50 44 -48 19 -40 -31 9 -41 40 -43 41
-43 17 0 -24 16 -42 55 -65 13 -7 28 -7 52 1 44 15 65 35 38 35 -16 1 -15 4 8
16 32 17 42 13 50 -18 5 -21 5 -21 -7 -6 -12 17 -14 17 -29 0 -13 -15 -15 -25
-7 -52 12 -40 5 -53 -9 -17 -5 14 -15 28 -22 33 -7 4 -10 3 -6 -3 4 -6 -3 -8
-18 -5 -19 3 -25 0 -25 -13 0 -12 6 -16 18 -13 14 4 17 -1 16 -29 -1 -19 -5
-37 -8 -40 -3 -3 -21 10 -39 31 -37 40 -51 44 -66 19 -9 -16 -10 -17 -11 -1 0
9 -8 19 -19 23 -10 3 -26 14 -36 25 -10 11 -25 20 -33 20 -12 0 -13 -11 -8
-62 4 -35 9 -64 10 -65 1 -2 25 -7 52 -12 40 -8 52 -7 67 7 17 15 17 14 2 -14
-8 -16 -15 -34 -15 -40 0 -6 -7 -18 -16 -25 -15 -12 -16 -11 -9 9 7 23 6 23
-18 8 -20 -14 -23 -23 -20 -53 2 -20 9 -43 15 -50 26 -32 96 -2 133 57 24 37
61 67 72 57 2 -3 -7 -22 -20 -44 -48 -77 -79 -145 -69 -155 16 -16 48 0 86 42
42 46 61 52 52 15 -9 -36 4 -31 68 22 44 37 53 49 41 56 -8 4 -15 15 -15 23 0
8 -5 23 -12 33 -9 15 -9 23 1 35 8 9 19 16 26 16 13 0 25 64 25 134 l0 41 -30
-62 c-16 -35 -32 -80 -36 -100 -8 -48 -30 -83 -51 -83 -24 0 -10 64 24 108 37
48 83 148 83 178 0 23 -3 24 -61 24 -47 0 -65 -4 -75 -17 -13 -17 -14 -17 -8
0 6 15 -3 17 -86 17 -86 0 -92 -1 -79 -17z m35 -205 c-9 -44 -26 -60 -23 -22
2 26 -1 29 -23 26 -29 -4 -17 13 15 21 36 9 38 7 31 -25z"/>
<path d="M9445 3713 c2 -21 7 -62 10 -91 7 -64 13 -82 30 -82 24 0 37 -27 25
-49 -20 -38 -2 -22 44 41 45 61 46 63 46 140 l0 78 -80 0 -80 0 5 -37z"/>
<path d="M9035 3710 c-3 -5 -2 -10 4 -10 5 0 13 5 16 10 3 6 2 10 -4 10 -5 0
-13 -4 -16 -10z"/>
<path d="M8972 3680 c0 -14 2 -19 5 -12 2 6 2 18 0 25 -3 6 -5 1 -5 -13z"/>
<path d="M7340 3671 c0 -5 5 -13 10 -16 6 -3 10 -2 10 4 0 5 -4 13 -10 16 -5
3 -10 2 -10 -4z"/>
<path d="M7866 3624 l-19 -26 27 17 c14 10 26 21 26 26 0 16 -15 9 -34 -17z"/>
<path d="M7936 3594 c-9 -24 -7 -31 5 -11 6 9 15 14 21 11 7 -4 8 -2 4 4 -10
17 -23 15 -30 -4z"/>
<path d="M8601 3594 c0 -11 3 -14 6 -6 3 7 2 16 -1 19 -3 4 -6 -2 -5 -13z"/>
<path d="M8140 3570 c0 -5 5 -10 11 -10 5 0 7 5 4 10 -3 6 -8 10 -11 10 -2 0
-4 -4 -4 -10z"/>
<path d="M9171 3564 c0 -11 3 -14 6 -6 3 7 2 16 -1 19 -3 4 -6 -2 -5 -13z"/>
<path d="M7518 3529 c-1 -13 -10 -24 -18 -25 -32 -2 -33 -5 -12 -27 19 -21 21
-28 11 -55 -12 -35 -18 -38 -38 -19 -11 10 -11 8 0 -13 7 -14 12 -31 11 -38
-2 -10 8 -12 35 -10 l38 3 -1 93 c-1 52 -6 98 -12 104 -7 7 -11 3 -14 -13z"/>
<path d="M8105 3521 c-3 -5 -1 -12 5 -16 5 -3 10 1 10 9 0 18 -6 21 -15 7z"/>
<path d="M9039 3473 c-13 -17 -13 -17 6 -3 11 8 22 16 24 17 2 2 0 3 -6 3 -6
0 -17 -8 -24 -17z"/>
<path d="M8000 3459 c0 -5 5 -7 10 -4 6 3 10 8 10 11 0 2 -4 4 -10 4 -5 0 -10
-5 -10 -11z"/>
<path d="M9582 3398 c-7 -7 -13 -23 -13 -37 -2 -23 -2 -23 -6 -4 -4 21 -5 21
-48 -8 -24 -16 -87 -50 -140 -74 -89 -41 -95 -46 -93 -72 1 -16 -13 -68 -31
-116 -19 -50 -39 -132 -47 -190 -16 -113 -54 -206 -117 -290 -21 -26 -37 -49
-37 -51 0 -2 21 -9 48 -15 56 -13 139 -2 207 28 25 11 45 17 45 14 0 -15 -67
-127 -97 -163 -26 -30 -33 -44 -25 -52 14 -14 8 -20 74 79 80 118 85 134 65
196 -24 79 -30 156 -17 227 10 58 17 70 59 110 26 25 59 61 75 80 l27 35 -22
-40 c-13 -22 -33 -53 -45 -70 -50 -68 -54 -266 -9 -409 8 -27 15 -62 15 -78 0
-17 4 -27 10 -23 6 3 7 -1 4 -9 -3 -9 -1 -16 5 -16 7 0 11 -20 11 -50 0 -54 7
-61 35 -30 10 11 24 20 30 20 7 0 20 10 29 23 13 16 16 17 12 4 -4 -11 -2 -15
4 -12 9 5 15 1005 7 1005 -2 0 -8 -5 -15 -12z m-5 -180 c-2 -18 -4 -4 -4 32 0
36 2 50 4 33 2 -18 2 -48 0 -65z m2 -140 c-1 -51 1 -123 5 -161 6 -56 4 -68
-9 -73 -8 -4 -22 -1 -30 6 -8 7 -15 9 -15 5 0 -4 -7 -2 -15 5 -19 16 -12 62
16 99 25 34 38 89 39 159 0 28 3 52 6 52 3 0 5 -42 3 -92z"/>
<path d="M9520 2900 c-6 -11 -8 -20 -6 -20 3 0 10 9 16 20 6 11 8 20 6 20 -3
0 -10 -9 -16 -20z"/>
<path d="M9557 2879 c4 -13 8 -18 11 -10 2 7 -1 18 -6 23 -8 8 -9 4 -5 -13z"/>
<path d="M1893 792 c-134 -124 -200 -250 -238 -452 l-7 -35 27 40 c41 59 124
143 172 170 38 23 43 30 53 83 6 31 22 97 36 146 14 48 24 92 22 96 -2 5 -31
-17 -65 -48z"/>
<path d="M1010 829 c0 -2 9 -33 20 -67 26 -82 33 -125 21 -118 -18 11 -21 -31
-6 -68 9 -21 14 -43 13 -48 -2 -6 -10 8 -16 31 -7 23 -17 39 -22 36 -6 -4 -7
1 -3 11 4 12 3 15 -5 10 -16 -10 -15 -27 3 -40 9 -6 15 -25 15 -41 0 -17 0
-97 -1 -180 l-1 -150 -9 125 c-5 69 -10 131 -11 138 -5 22 -46 -20 -42 -42 1
-11 -4 -25 -13 -31 -13 -10 -14 -29 -10 -121 4 -60 6 -146 7 -191 l0 -83 70 0
70 0 2 123 2 122 6 -110 c5 -100 6 -92 8 79 1 104 5 187 8 183 3 -3 21 -39 38
-79 40 -90 114 -215 162 -274 l36 -44 139 0 139 0 -5 38 c-36 253 -117 604
-147 637 -5 6 -2 -9 7 -32 14 -35 16 -67 12 -185 -4 -129 -11 -195 -22 -207
-2 -2 2 -20 10 -40 13 -34 13 -34 -2 -14 -8 13 -22 23 -29 23 -8 0 -14 5 -14
11 0 5 4 7 10 4 6 -4 7 1 3 11 -5 15 -7 15 -15 0 -8 -15 -11 -15 -24 -1 -9 8
-22 15 -31 15 -13 0 -13 3 -3 15 10 13 9 15 -9 15 -11 0 -21 -4 -21 -10 0 -5
-7 -10 -15 -10 -7 0 -18 -7 -23 -16 -8 -14 -11 -12 -20 12 -6 16 -29 76 -52
134 -22 58 -51 147 -65 197 -13 51 -28 99 -32 106 -8 14 -133 132 -133 126z
m77 -501 c-2 -13 -4 -3 -4 22 0 25 2 35 4 23 2 -13 2 -33 0 -45z m-60 -190
c-2 -13 -4 -3 -4 22 0 25 2 35 4 23 2 -13 2 -33 0 -45z m0 -60 c-3 -7 -5 -2
-5 12 0 14 2 19 5 13 2 -7 2 -19 0 -25z"/>
<path d="M982 715 c7 -9 18 -21 24 -28 6 -7 13 -19 16 -27 3 -11 6 -10 11 4 5
11 -2 25 -20 42 -29 26 -51 33 -31 9z"/>
<path d="M980 589 c0 -5 -4 -7 -10 -4 -5 3 -10 1 -10 -4 0 -6 7 -11 15 -11 8
0 15 7 15 15 0 8 -2 15 -5 15 -3 0 -5 -5 -5 -11z"/>
<path d="M850 581 c0 -6 4 -13 10 -16 6 -3 7 1 4 9 -7 18 -14 21 -14 7z"/>
<path d="M804 535 c-3 -25 -10 -42 -15 -39 -5 3 -6 -2 -3 -10 3 -9 1 -16 -5
-16 -6 0 -11 -5 -11 -11 0 -5 6 -7 13 -3 9 6 9 4 1 -7 -12 -16 -10 -103 7
-232 6 -49 9 -91 6 -93 -6 -6 -26 101 -34 185 -6 64 -6 64 -25 42 -10 -13 -15
-27 -12 -32 3 -5 1 -9 -4 -9 -16 0 -22 39 -22 143 0 78 -3 97 -14 97 -20 0
-62 -57 -72 -95 -7 -26 -9 -80 -4 -87 7 -11 6 -37 -1 -32 -5 3 -9 -1 -9 -8 0
-9 -3 -9 -10 2 -11 16 -11 16 -16 -20 -1 -14 -10 -54 -18 -90 l-15 -65 6 61
c4 49 2 62 -10 67 -11 4 -15 0 -14 -12 1 -21 -31 -93 -47 -103 -6 -4 -14 0
-17 9 -3 9 -13 -26 -22 -78 -16 -89 -16 -50 -1 62 6 41 4 47 -15 52 -16 4 -21
0 -21 -16 0 -35 -23 -147 -30 -147 -4 0 -3 23 1 52 5 29 6 62 3 75 -4 13 -1
30 5 37 8 10 9 16 1 21 -5 3 -10 -1 -10 -9 0 -9 -6 -15 -12 -14 -8 2 -14 -9
-16 -26 -3 -23 -6 -26 -14 -15 -8 11 -9 10 -4 -4 3 -10 6 -52 6 -93 0 -57 3
-74 14 -74 8 0 17 10 19 23 l4 22 2 -22 c1 -21 6 -23 65 -23 42 0 66 4 69 13
4 9 6 9 6 0 1 -7 14 -13 30 -13 27 0 30 4 41 53 14 59 29 93 30 66 0 -8 7 -39
15 -67 l16 -52 89 0 c65 0 90 3 90 13 0 9 2 9 8 0 5 -8 29 -12 61 -12 l54 2
-7 120 c-3 66 -6 144 -6 174 0 47 -3 55 -25 65 -17 8 -25 20 -26 37 0 23 -1
24 -8 6 l-8 -20 -5 20 c-19 71 8 -189 32 -318 6 -33 9 -61 7 -63 -17 -18 -76
460 -60 489 2 4 -3 7 -11 7 -12 0 -14 7 -9 30 3 17 3 30 0 30 -3 0 -9 -20 -13
-45z m-267 -417 c-3 -7 -5 -2 -5 12 0 14 2 19 5 13 2 -7 2 -19 0 -25z m281
-73 c0 -16 -2 -15 -8 5 -4 14 -8 34 -8 45 0 16 2 15 8 -5 4 -14 8 -34 8 -45z
m-291 33 c-3 -8 -6 -5 -6 6 -1 11 2 17 5 13 3 -3 4 -12 1 -19z m-10 -40 c-3
-8 -6 -5 -6 6 -1 11 2 17 5 13 3 -3 4 -12 1 -19z"/>
<path d="M880 560 c0 -5 5 -10 10 -10 6 0 10 5 10 10 0 6 -4 10 -10 10 -5 0
-10 -4 -10 -10z"/>
<path d="M1011 554 c0 -11 3 -14 6 -6 3 7 2 16 -1 19 -3 4 -6 -2 -5 -13z"/>
<path d="M570 517 c4 -19 12 -42 18 -53 10 -17 11 -18 12 -1 0 19 -26 87 -33
87 -3 0 -2 -15 3 -33z"/>
<path d="M862 530 c0 -14 2 -19 5 -12 2 6 2 18 0 25 -3 6 -5 1 -5 -13z"/>
<path d="M525 497 c-12 -10 -15 -16 -6 -21 6 -4 14 0 17 8 3 9 10 13 15 10 5
-3 9 0 9 5 0 15 -12 14 -35 -2z"/>
<path d="M936 493 c-4 -9 -3 -20 1 -24 4 -4 9 3 9 17 2 28 -1 31 -10 7z"/>
<path d="M851 474 c0 -11 3 -14 6 -6 3 7 2 16 -1 19 -3 4 -6 -2 -5 -13z"/>
<path d="M480 471 c0 -5 5 -13 10 -16 6 -3 10 -2 10 4 0 5 -4 13 -10 16 -5 3
-10 2 -10 -4z"/>
<path d="M473 429 c-1 -10 2 -19 8 -19 11 0 12 27 1 34 -4 2 -9 -4 -9 -15z"/>
<path d="M850 439 c0 -5 5 -7 10 -4 6 3 10 8 10 11 0 2 -4 4 -10 4 -5 0 -10
-5 -10 -11z"/>
<path d="M453 419 c3 -9 0 -23 -6 -30 -10 -11 -9 -11 6 0 14 11 17 11 17 1 0
-8 3 -11 6 -7 3 3 -2 16 -11 29 -10 13 -15 16 -12 7z"/>
<path d="M548 361 c-2 -16 -1 -37 3 -47 5 -13 8 -3 8 29 1 53 -5 62 -11 18z"/>
<path d="M456 362 c-4 -7 -4 -18 -1 -24 4 -7 -1 -4 -11 7 -13 16 -16 17 -11 3
3 -10 2 -20 -3 -23 -15 -9 -7 -55 9 -55 12 0 12 3 3 12 -15 15 -16 38 -2 38 6
0 10 -8 11 -17 0 -10 5 -3 10 15 11 37 8 64 -5 44z"/>
<path d="M1837 273 c-14 -49 -29 -122 -32 -163 -4 -41 -9 -83 -11 -92 -5 -15
1 -18 35 -18 32 0 41 4 42 18 0 9 -1 64 -2 122 -1 58 -2 131 -2 163 0 31 -1
57 -2 57 -1 0 -14 -39 -28 -87z"/>
<path d="M482 330 c0 -14 2 -19 5 -12 2 6 2 18 0 25 -3 6 -5 1 -5 -13z"/>
<path d="M387 303 c-3 -5 -1 -17 4 -28 6 -17 7 -16 6 8 -1 28 -3 32 -10 20z"/>
<path d="M469 278 c-1 -13 -3 -33 -4 -45 -1 -13 1 -23 4 -23 4 0 8 20 9 45 1
25 -1 45 -3 45 -3 0 -6 -10 -6 -22z"/>
<path d="M77 159 c-31 -12 -60 -63 -71 -121 l-7 -38 126 0 c69 0 125 2 125 5
0 21 -45 116 -63 133 -28 26 -73 35 -110 21z"/>
</g>
</svg>
